<svg id="Layer_1" data-name="Layer 1" xmlns="http://www.w3.org/2000/svg" viewBox="0 0 292.02 292.02"><defs><style>.cls-1{fill:#fff;stroke:#e2a856;stroke-width:3px;}.cls-1,.cls-5{stroke-miterlimit:10;}.cls-2{fill:#00447c;}.cls-3{fill:#6799c8;}.cls-4{fill:#e2a856;}.cls-5{fill:none;stroke:#6799c8;stroke-width:1.5px;}</style></defs><circle class="cls-1" cx="146.01" cy="146.01" r="144.51"/><path class="cls-2" d="M52.25,68l2-2.34c2.24-2.59,5.07-3.94,8-1.42a4.18,4.18,0,0,1,1.56,3.81,4.8,4.8,0,0,1,6,.46c2.83,2.46,2,5.73-.46,8.54l-2.87,3.3Zm7.64,3.85.52-.6c1.56-1.79,2.68-3.5.47-5.42s-3.56-.71-5.24,1.24l-.54.62Zm6.49,5.64,1.38-1.59c1.54-1.77,2.73-4,.56-5.9s-4.37-.08-5.87,1.65L61.25,73Z" transform="translate(-8.42 -3.81)"/><path class="cls-2" d="M83.54,50.81a9.83,9.83,0,1,1-13.81-1.1A9.76,9.76,0,0,1,83.54,50.81ZM70.14,62.14A7.73,7.73,0,1,0,71,51.2,7.79,7.79,0,0,0,70.14,62.14Z" transform="translate(-8.42 -3.81)"/><path class="cls-2" d="M91,39.55a3.46,3.46,0,0,0-3.84,0A3,3,0,0,0,86,43.63c.85,1.39,2.67,1.15,4.06,1l1.35-.18c2.65-.37,5.06-.41,6.63,2.15a5.95,5.95,0,0,1-9.56,7L90,52a3.9,3.9,0,0,0,5,1,3.8,3.8,0,0,0,1.38-5.16c-1.15-1.88-3-1.61-4.93-1.38l-1.24.17c-2.39.3-4.6.34-6-2-1.53-2.49-.41-5.39,2-6.85a5.41,5.41,0,0,1,5.68-.06Z" transform="translate(-8.42 -3.81)"/><path class="cls-2" d="M107.81,48l-1.9.89-7.19-15.3L94.6,35.51l-.83-1.76L104,29l.83,1.76-4.16,2Z" transform="translate(-8.42 -3.81)"/><path class="cls-2" d="M128.51,30.8a9.83,9.83,0,1,1-12.25-6.49A9.78,9.78,0,0,1,128.51,30.8Zm-16.8,5.08a7.73,7.73,0,1,0,5.12-9.71A7.79,7.79,0,0,0,111.71,35.88Z" transform="translate(-8.42 -3.81)"/><path class="cls-2" d="M131.26,19.94,147.6,33.59,146,19.08l2.08-.23,2.22,19.57L133.92,24.8l1.63,14.43-2.08.24Z" transform="translate(-8.42 -3.81)"/><path class="cls-2" d="M170.4,38.9l-2.07-.35L171.45,20l2.69.45c3.52.59,6.65,2.08,5.94,6.27A4.93,4.93,0,0,1,174.56,31l4.52,9.33-2.54-.43-4.25-9.1-.52-.09Zm1.68-10,.64.11c2.34.39,4.78.35,5.27-2.54.51-3.05-1.68-3.73-4.18-4.14l-.61-.11Z" transform="translate(-8.42 -3.81)"/><path class="cls-2" d="M186.44,22.8l9.39,2.72-.55,1.88-7.37-2.14-1.56,5.38,7.16,2.07L193,34.59l-7.16-2.08-2.06,7.11,7.37,2.14-.54,1.87-9.39-2.72Z" transform="translate(-8.42 -3.81)"/><path class="cls-2" d="M213.33,43.12c-1,2.34-2.14,4.13-4.54,5.23a9.3,9.3,0,0,1-7.66,0,9.75,9.75,0,1,1,13.79-10.65l-2,.66a7.66,7.66,0,0,0-4.41-5.92,7.82,7.82,0,0,0-10.28,4,7.61,7.61,0,0,0-.22,5.76,7.92,7.92,0,0,0,3.87,4.41c3,1.36,7.11.62,8.57-2.57l-5.09-2.33.81-1.77Z" transform="translate(-8.42 -3.81)"/><path class="cls-2" d="M213.23,54.43l-1.79-1.09,9.74-16.13L223,38.3Z" transform="translate(-8.42 -3.81)"/><path class="cls-2" d="M236.76,60A9.82,9.82,0,1,1,235,46.25,9.77,9.77,0,0,1,236.76,60ZM222.93,49.2a7.72,7.72,0,1,0,10.88-1.41A7.8,7.8,0,0,0,222.93,49.2Z" transform="translate(-8.42 -3.81)"/><path class="cls-2" d="M247.22,56,245.5,77.2l10.9-9.72,1.4,1.57L243.09,82.16l1.7-21.2L234,70.62l-1.4-1.57Z" transform="translate(-8.42 -3.81)"/><path class="cls-2" d="M41.73,144.69l-11.72,5,11.7,5.11L27,157.64v-1.59l9.43-1.78v0l-10-4.52,10-4.45v0L27,143.42v-1.59Z" transform="translate(-8.42 -3.81)"/><path class="cls-2" d="M41.25,159.13l.8,7.18-1.43.17L40,160.83l-4.12.46.61,5.48-1.43.16-.61-5.47-5.44.61.63,5.64-1.44.16-.8-7.19Z" transform="translate(-8.42 -3.81)"/><path class="cls-2" d="M29.46,175l-.29-1.53,12.28-2.38-.64-3.3,1.41-.28,1.59,8.18-1.42.27-.65-3.34Z" transform="translate(-8.42 -3.81)"/><path class="cls-2" d="M31.13,182.25l-.42-1.5L44.14,177l.54,1.94c.72,2.55.7,5.11-2.32,6a3.65,3.65,0,0,1-4.65-2.33l-4.83,6-.51-1.84L37.13,181,37,180.6Zm7.21-2,.13.46c.48,1.69,1.27,3.31,3.36,2.73s2-2.3,1.46-4.1l-.12-.44Z" transform="translate(-8.42 -3.81)"/><path class="cls-2" d="M45.46,201.82a7.27,7.27,0,1,1,4-9.46A7.23,7.23,0,0,1,45.46,201.82Zm-4.86-12a5.72,5.72,0,1,0,7.5,3.13A5.76,5.76,0,0,0,40.6,189.78Z" transform="translate(-8.42 -3.81)"/><path class="cls-2" d="M41.36,208.71l-.74-1.37,12.29-6.62,1.09,2a5.86,5.86,0,0,1,1,3.4,3.82,3.82,0,0,1-2,2.89,3.87,3.87,0,0,1-3.27.25,5,5,0,0,1-2.39-2.47l-.53-1ZM48,205.13l.49.91c.81,1.51,2,2.56,3.72,1.61,2-1.08,1.29-2.77.43-4.37l-.28-.5Z" transform="translate(-8.42 -3.81)"/><path class="cls-2" d="M59.24,224.08A7.27,7.27,0,1,1,61.08,214,7.24,7.24,0,0,1,59.24,224.08Zm-7.35-10.72a5.72,5.72,0,1,0,8,1.44A5.76,5.76,0,0,0,51.89,213.36Z" transform="translate(-8.42 -3.81)"/><path class="cls-2" d="M57.75,230.66l2.48,2.94-1.11.93-3.47-4.13,10.66-9,1,1.19Z" transform="translate(-8.42 -3.81)"/><path class="cls-2" d="M61.62,237.2l-1.06-1.14,10.22-9.49,1.06,1.14Z" transform="translate(-8.42 -3.81)"/><path class="cls-2" d="M66.69,242.29l-1.12-1.07,8.66-9-2.42-2.33,1-1,6,5.77-1,1-2.46-2.36Z" transform="translate(-8.42 -3.81)"/><path class="cls-2" d="M74,243.6l-3.81,2-1.32-1.08,14.24-7.23-4.41,15.28-1.33-1.09,1.24-4.1Zm6.79-3.53-5.39,2.81,3.65,3Z" transform="translate(-8.42 -3.81)"/><path class="cls-2" d="M88.89,242,92,257.47l5.77-9.13,1.31.83-7.79,12.31-3.11-15.42-5.74,9.08-1.31-.83Z" transform="translate(-8.42 -3.81)"/><path class="cls-2" d="M102.32,266.21l-1.43-.61,5.54-12.81,2.11.91a5.94,5.94,0,0,1,2.88,2.06,4,4,0,0,1-2.24,5.76,5,5,0,0,1-3.4-.46l-1-.45Zm3-6.93,1,.42c1.58.68,3.12.78,3.92-1.05.9-2.09-.72-3-2.38-3.69l-.53-.23Z" transform="translate(-8.42 -3.81)"/><path class="cls-2" d="M112.15,268.6l3.63,1.27-.47,1.36-5.1-1.79,4.62-13.16,1.47.51Z" transform="translate(-8.42 -3.81)"/><path class="cls-2" d="M120.69,268.72l-2.62,3.42-1.65-.43,9.88-12.55,2.44,15.72-1.67-.43-.61-4.25Zm4.67-6.06-3.7,4.82,4.57,1.17Z" transform="translate(-8.42 -3.81)"/><path class="cls-2" d="M133.53,261l9.31,12.71,1.4-10.72,1.54.21-1.89,14.45L134.58,265l-1.39,10.66-1.55-.2Z" transform="translate(-8.42 -3.81)"/><path class="cls-2" d="M148.44,262.79l10.88,11.39v-10.8h1.55V278L150,266.58v10.75h-1.55Z" transform="translate(-8.42 -3.81)"/><path class="cls-2" d="M166.31,276.79l-1.55.13L163.57,263l1.55-.13Z" transform="translate(-8.42 -3.81)"/><path class="cls-2" d="M167.71,262.19l12.66,9.38-1.84-10.65,1.53-.26L182.55,275l-12.66-9.35,1.83,10.59-1.53.26Z" transform="translate(-8.42 -3.81)"/><path class="cls-2" d="M197,262.8a6.62,6.62,0,0,1,.09,5.13,6.89,6.89,0,0,1-4.23,3.76A7.21,7.21,0,1,1,195.16,259l-.76,1.34a5.69,5.69,0,0,0-5.36-1.07,5.78,5.78,0,0,0-3.7,7.26,5.64,5.64,0,0,0,2.74,3.28,5.88,5.88,0,0,0,4.31.51c2.31-.73,4.21-3.18,3.44-5.66l-4,1.24-.43-1.37Z" transform="translate(-8.42 -3.81)"/><path class="cls-2" d="M217.23,253a7.26,7.26,0,1,1-9.8-3A7.23,7.23,0,0,1,217.23,253Zm-11.48,6.06a5.71,5.71,0,1,0,2.35-7.77A5.77,5.77,0,0,0,205.75,259.07Z" transform="translate(-8.42 -3.81)"/><path class="cls-2" d="M224.56,256.36l-1.28.87-7.86-11.52,1.66-1.13c2.19-1.49,4.61-2.3,6.39.3a3.65,3.65,0,0,1-.72,5.15l7.19,2.66-1.58,1.07-6.93-2.68-.32.22Zm-4.22-6.19.39-.27c1.46-1,2.73-2.27,1.52-4.05s-2.81-1.13-4.36-.08l-.38.26Z" transform="translate(-8.42 -3.81)"/><path class="cls-2" d="M237.82,237.08a6.66,6.66,0,0,1,2.1,4.68,6.92,6.92,0,0,1-2.41,5.13,7.22,7.22,0,1,1-2.86-12.58l-.17,1.54a5.66,5.66,0,0,0-5.35,1.11,5.79,5.79,0,0,0-.55,8.13,5.59,5.59,0,0,0,3.8,1.94,5.82,5.82,0,0,0,4.16-1.22c1.84-1.57,2.63-4.58,1-6.55L234.34,242l-.94-1.1Z" transform="translate(-8.42 -3.81)"/><path class="cls-2" d="M243.37,235.65l1.78,3.92L244,240.82l-6.38-14.64,15,5.3-1.16,1.26-4-1.47Zm-3.12-7,2.49,5.54,3.2-3.47Z" transform="translate(-8.42 -3.81)"/><path class="cls-2" d="M242.65,220.7l15.6-2.19-8.77-6.3.91-1.26,11.83,8.5-15.58,2.2,8.72,6.27-.9,1.26Z" transform="translate(-8.42 -3.81)"/><path class="cls-2" d="M264.45,214.35l-.79,1.34-12-7.15.8-1.33Z" transform="translate(-8.42 -3.81)"/><path class="cls-2" d="M269,202.73l1.28.66-4.53,8.9-7.69-12.45-3,5.91-1.28-.65,4.19-8.22,7.68,12.46Z" transform="translate(-8.42 -3.81)"/><path class="cls-2" d="M268.64,197.15l3.09,3-.61,1.59-11.31-11.28,15.89-.58-.62,1.61-4.29.11Zm-5.46-5.35,4.34,4.24,1.71-4.4Z" transform="translate(-8.42 -3.81)"/><path class="cls-2" d="M276.93,185.39l-.45,1.49-12-3.55-1,3.22-1.38-.4,2.36-8,1.39.41-1,3.27Z" transform="translate(-8.42 -3.81)"/><path class="cls-2" d="M278.73,178.41l-.35,1.51-13.58-3.2.35-1.51Z" transform="translate(-8.42 -3.81)"/><path class="cls-2" d="M274.78,160a7.27,7.27,0,1,1-8.2,6.17A7.25,7.25,0,0,1,274.78,160Zm-1.87,12.85a5.71,5.71,0,1,0-4.9-6.48A5.77,5.77,0,0,0,272.91,172.86Z" transform="translate(-8.42 -3.81)"/><path class="cls-2" d="M267.34,157.17l11.5-10.77-10.8-.1,0-1.56,14.58.15-11.49,10.76,10.75.11,0,1.56Z" transform="translate(-8.42 -3.81)"/><path class="cls-3" d="M121.48,205.72l-2-70.57h-.21c-.93,8.19-1.65,16.38-2.69,24.57l-6,46H93.4l-7.35-70.57h-.21c-.1,8.34,0,16.53-.31,24.87l-1.76,45.7H61.08L70.2,93.47H96.51l6,59.7h.21c.62-7,1.14-13.85,2.07-20.84l5.08-38.86h26l7.57,112.25Z" transform="translate(-8.42 -3.81)"/><path class="cls-3" d="M143.44,205.72V93.47h19.27c18.45,0,32.64,8.63,32.64,38.11,0,29.18-12.43,38.11-30.77,37.37v36.77Zm22.69-88.13-1.55.14v25.91c5.8.45,9.43-4.17,9.43-12.51C174,124,171.31,117.59,166.13,117.59Z" transform="translate(-8.42 -3.81)"/><path class="cls-3" d="M223.63,91.53c21.45,0,29.84,30.67,29.84,58.07s-8.39,58.06-29.84,58.06S193.79,177,193.79,149.6,202.19,91.53,223.63,91.53Zm0,87.84c8,0,8.29-22.78,8.29-29.77s-.31-29.78-8.29-29.78-8.28,22.78-8.28,29.78S215.66,179.37,223.63,179.37Z" transform="translate(-8.42 -3.81)"/><path class="cls-4" d="M154.85,213.13h83a104.47,104.47,0,0,1-83,40.86h-.49a104.5,104.5,0,0,1-83-40.86h83.45Z" transform="translate(-8.42 -3.81)"/><polyline class="cls-5" points="63.78 80.14 72.11 80.14 72.11 65.81 80.11 65.81 90.11 65.81 90.11 55.47 100.45 55.47 100.45 83.47 115.11 83.47 115.11 45.47 126.45 45.47 126.45 64.47 135.11 64.47 135.11 46.81 143.78 55.47 143.78 74.47 152.45 74.47 152.45 48.47 160.12 40.81 167.45 48.14 167.45 59.14 171.78 59.14 171.78 43.81 177.62 49.64 177.62 81.47 188.45 81.47 188.45 65.14 195.12 65.14 195.12 53.14 202.45 53.14 202.45 66.81 202.45 74.81 209.45 74.81 209.45 64.81 215.78 64.81 215.78 80.14 229.78 80.14"/><path class="cls-4" d="M32.43,138.11a78.42,78.42,0,0,1,1.75-16.29c.54-2.69,1.27-5.34,2-8S38,108.64,39,106.07s2.16-5.06,3.38-7.5,2.57-4.86,4-7.17a77.49,77.49,0,0,1,10-13c-2.8,4.69-5.49,9.36-8,14.14C47.2,95,46,97.35,44.89,99.8s-2.17,4.86-3.17,7.4-1.94,5-2.81,7.52-1.68,5.1-2.47,7.67C34.92,127.55,33.64,132.79,32.43,138.11Z" transform="translate(-8.42 -3.81)"/><path class="cls-4" d="M256,81.8a75.13,75.13,0,0,1,8.85,12.72c1.3,2.25,2.43,4.59,3.52,6.94s2,4.79,2.92,7.23,1.62,4.93,2.29,7.44,1.23,5,1.64,7.61a74.9,74.9,0,0,1,1.13,15.46c-1.05-5.06-2.13-10-3.42-15-.67-2.45-1.31-4.91-2.08-7.32s-1.52-4.84-2.39-7.22-1.74-4.76-2.69-7.11-2-4.68-3-7C260.7,90.94,258.4,86.39,256,81.8Z" transform="translate(-8.42 -3.81)"/></svg>